<?xml version="1.0" encoding="UTF-8"?>
<svg version="1.1" xmlns="http://www.w3.org/2000/svg" width="206" height="181">
<path d="M0 0 C1.00305176 0.37922607 1.00305176 0.37922607 2.02636719 0.76611328 C3.70190142 1.44318893 5.32572349 2.24517333 6.9375 3.0625 C7.4325 4.5475 7.4325 4.5475 7.9375 6.0625 C6.72265625 8.10546875 6.72265625 8.10546875 5 10.25 C4.43410156 10.96542969 3.86820312 11.68085938 3.28515625 12.41796875 C2.84042969 12.96066406 2.39570313 13.50335937 1.9375 14.0625 C-0.67717154 13.57105626 -3.23105742 13.01602631 -5.796875 12.30859375 C-23.56170052 7.54522732 -41.74689069 9.48945862 -58.0625 18.0625 C-61.48731835 20.25250106 -64.62446663 22.73261036 -67.76953125 25.3046875 C-70.0625 27.0625 -70.0625 27.0625 -72.0625 27.0625 C-72.0625 27.7225 -72.0625 28.3825 -72.0625 29.0625 C-73.20769136 30.20769136 -74.35518168 31.35064289 -75.51171875 32.484375 C-80.9889031 38.05813438 -84.73325964 43.94923509 -87.875 51.0625 C-88.16487793 51.71452393 -88.45475586 52.36654785 -88.75341797 53.03833008 C-94.75053579 67.23598526 -95.7832928 85.52939359 -90.39453125 100.0390625 C-82.769354 117.34664957 -74.64270354 128.09620882 -56.9375 135.9375 C-56.29312988 136.22367188 -55.64875977 136.50984375 -54.98486328 136.8046875 C-38.02341616 143.9445428 -16.17464665 143.52430433 0.9375 137.0625 C11.25828641 132.81040696 11.25828641 132.81040696 19.9375 126.0625 C20.5975 126.0625 21.2575 126.0625 21.9375 126.0625 C22.2675 125.0725 22.5975 124.0825 22.9375 123.0625 C23.659375 122.36125 24.38125 121.66 25.125 120.9375 C36.09198461 110.25496168 40.89233954 94.4837341 41.1875 79.5 C41.08749064 72.98400565 39.98938394 67.21815183 37.9375 61.0625 C39.04158203 60.26585938 39.04158203 60.26585938 40.16796875 59.453125 C41.14378906 58.74671875 42.11960938 58.0403125 43.125 57.3125 C44.08792969 56.61640625 45.05085937 55.9203125 46.04296875 55.203125 C48.72879214 53.21684805 51.34416793 51.16750812 53.9375 49.0625 C56.20487649 53.95291987 57.69068434 58.61401397 58.625 63.9375 C58.75092529 64.64656494 58.87685059 65.35562988 59.0065918 66.08618164 C59.87457639 71.21005281 60.38750937 75.89542808 59.9375 81.0625 C59.8446875 82.31417969 59.751875 83.56585938 59.65625 84.85546875 C58.00610338 103.72698788 51.49159699 119.70436939 38.9375 134.0625 C38.40640625 134.67738281 37.8753125 135.29226562 37.328125 135.92578125 C23.03346702 151.31730655 1.49148428 160.00078241 -19.23413086 161.18676758 C-43.57064197 162.04407951 -67.53287164 155.99915302 -85.875 139.3125 C-91.01772156 134.47889955 -95.28587519 129.21424045 -99.35546875 123.4609375 C-100.98890689 121.02537817 -100.98890689 121.02537817 -103.0625 119.0625 C-103.3925 118.0725 -103.7225 117.0825 -104.0625 116.0625 C-104.87420269 114.02051622 -105.68681985 111.97889586 -106.5 109.9375 C-114.42940952 89.25705154 -113.61539467 66.58652373 -105.4375 46.0625 C-95.50624074 24.13602784 -77.80531683 8.15962673 -55.609375 -0.71875 C-37.27675961 -7.01806278 -18.03094054 -6.89567351 0 0 Z " fill="#1E3B61" transform="translate(130.0625,12.9375)"/>
<path d="M0 0 C2.5865798 16.81276867 -1.16993483 33.11678115 -10.9375 47 C-18.59469751 56.78500097 -26.92033962 64.24768087 -38.75 68.5 C-48.7504847 72.50238697 -56.10299287 81.1544893 -62 90 C-62.66 90 -63.32 90 -64 90 C-64.26425781 90.59296875 -64.52851563 91.1859375 -64.80078125 91.796875 C-66.04370425 94.08029054 -67.30401646 95.47426723 -69.1875 97.25 C-71.75461591 99.73225257 -74.13288091 102.27251502 -76.4375 105 C-78.8898102 107.81602362 -81.40835191 110.49875893 -84.125 113.0625 C-84.74632813 113.65160156 -85.36765625 114.24070312 -86.0078125 114.84765625 C-88 116 -88 116 -90.51953125 115.859375 C-97.2798511 113.51721694 -102.43525867 106.6451382 -107.4375 101.6875 C-107.96996338 101.15987061 -108.50242676 100.63224121 -109.05102539 100.08862305 C-112.59848269 96.52508011 -113.90785955 95.16096972 -114.3125 90.0625 C-114.25612142 87.23844574 -114.23113287 86.30817716 -112.5 84 C-108.86538573 82.54615429 -105.77774618 82.01805875 -102 83 C-98.99675916 85.02323594 -96.50748335 87.39833887 -94 90 C-93.34 90.66 -92.68 91.32 -92 92 C-86.92162752 91.94663707 -84.10228825 88.72592754 -80.6875 85.375 C-79.52682875 84.26740378 -78.36537422 83.16062778 -77.203125 82.0546875 C-76.64818359 81.52198242 -76.09324219 80.98927734 -75.52148438 80.44042969 C-73.71298851 78.7282786 -71.83995058 77.10669146 -69.9375 75.5 C-65.72697799 71.88454106 -61.88064408 67.90645811 -58.03491211 63.91015625 C-56.7261478 62.57041906 -55.36674464 61.28053459 -54 60 C-53.34 60 -52.68 60 -52 60 C-51.75894531 59.43152344 -51.51789063 58.86304688 -51.26953125 58.27734375 C-49.75031912 55.55211092 -47.92581019 53.73309661 -45.6875 51.5625 C-44.87925781 50.76972656 -44.07101563 49.97695313 -43.23828125 49.16015625 C-41.62273655 47.60100054 -40.00083902 46.04841812 -38.375 44.5 C-33.30163286 39.15961354 -28.97049832 33.19397738 -25 27 C-34.26401308 34.12689781 -42.34193526 42.16319832 -50.5 50.5 C-52.98381307 53.0370105 -55.47422941 55.56727235 -57.96875 58.09375 C-58.53122437 58.67282104 -59.09369873 59.25189209 -59.67321777 59.84851074 C-62.09245485 62.29819949 -63.68580006 63.89526669 -67 65 C-68.57495079 63.42504921 -68.17007022 61.87319477 -68.1875 59.6875 C-68.01492229 46.24561394 -64.91946534 34.24235233 -56 24 C-55.37480469 23.26910156 -54.74960938 22.53820312 -54.10546875 21.78515625 C-40.79547775 7.33924765 -19.46972806 -0.4992238 0 0 Z " fill="#60AF83" transform="translate(195,5)"/>
<path d="M0 0 C-0.71163088 2.37210295 -1.42452994 4.74369946 -2.14453125 7.11328125 C-2.70953526 9.0198473 -3.24918706 10.934132 -3.76171875 12.85546875 C-4.00535156 13.74878906 -4.24898438 14.64210938 -4.5 15.5625 C-4.7165625 16.38878906 -4.933125 17.21507813 -5.15625 18.06640625 C-5.4346875 18.70449219 -5.713125 19.34257813 -6 20 C-9.65909284 21.21969761 -12.10591447 20.77832479 -15.9375 20.375 C-28.46025405 19.34430197 -37.48735424 22.65002561 -46.96875 30.6640625 C-51.18708143 34.57853107 -53.89241632 38.65612669 -56 44 C-56.3609375 44.88429687 -56.721875 45.76859375 -57.09375 46.6796875 C-58.24283984 50.88971494 -58.25513593 54.72312115 -58.1875 59.0625 C-58.18685547 59.85205078 -58.18621094 60.64160156 -58.18554688 61.45507812 C-58.15724789 67.29806995 -58.15724789 67.29806995 -57 73 C-56.34 73.33 -55.68 73.66 -55 74 C-53.7109375 75.99609375 -53.7109375 75.99609375 -52.375 78.4375 C-51.92898437 79.24058594 -51.48296875 80.04367188 -51.0234375 80.87109375 C-50 83 -50 83 -50 85 C-49.01 85.33 -48.02 85.66 -47 86 C-47.42049683 90.90579632 -49.47843242 92.7185393 -53 96 C-53.84243145 97.09724096 -54.67584988 98.20146218 -55.5 99.3125 C-58 102 -58 102 -60.32421875 102.4609375 C-66.50581528 101.39607854 -71.64542947 94.22789213 -75.25195312 89.28369141 C-84.22235806 75.99655989 -87.1454471 62.70725417 -84.3515625 46.8203125 C-81.54734348 33.41473868 -74.38368246 20.15703865 -64 11 C-63.34 11 -62.68 11 -62 11 C-62 10.34 -62 9.68 -62 9 C-61.195625 8.731875 -60.39125 8.46375 -59.5625 8.1875 C-58.716875 7.795625 -57.87125 7.40375 -57 7 C-56.67 6.01 -56.34 5.02 -56 4 C-40.40920842 -5.29498703 -16.01943193 -10.89568299 0 0 Z M-23 0 C-23 4.95 -23 9.9 -23 15 C-22.67 15 -22.34 15 -22 15 C-22 10.05 -22 5.1 -22 0 C-22.33 0 -22.66 0 -23 0 Z M-56 8 C-55.34 9.32 -54.68 10.64 -54 12 C-54 11.01 -54 10.02 -54 9 C-54.66 8.67 -55.32 8.34 -56 8 Z M-52 13 C-52 13.99 -52 14.98 -52 16 C-51.34 16 -50.68 16 -50 16 C-50.33 15.01 -50.66 14.02 -51 13 C-51.33 13 -51.66 13 -52 13 Z M-46 21 C-45 23 -45 23 -45 23 Z M-64 42 C-63.34 42.66 -62.68 43.32 -62 44 C-61.01 43.67 -60.02 43.34 -59 43 C-60.65 42.67 -62.3 42.34 -64 42 Z " fill="#D3E2E3" transform="translate(126,35)"/>
<path d="M0 0 C-0.71163088 2.37210295 -1.42452994 4.74369946 -2.14453125 7.11328125 C-2.70953526 9.0198473 -3.24918706 10.934132 -3.76171875 12.85546875 C-4.00535156 13.74878906 -4.24898437 14.64210938 -4.5 15.5625 C-4.7165625 16.38878906 -4.933125 17.21507813 -5.15625 18.06640625 C-5.4346875 18.70449219 -5.713125 19.34257813 -6 20 C-9.65909284 21.21969761 -12.10591447 20.77832479 -15.9375 20.375 C-26.95311301 19.45636657 -35.74587144 22.08764009 -45 28 C-45.144375 26.906875 -45.28875 25.81375 -45.4375 24.6875 C-45.88288104 21.06877013 -45.88288104 21.06877013 -47 18 C-47.99 17.67 -48.98 17.34 -50 17 C-51.01704034 15.25196191 -52.03155598 13.49951953 -52.9375 11.69140625 C-54.04265597 9.67580728 -54.04265597 9.67580728 -57 8 C-56.86328125 6.1875 -56.86328125 6.1875 -56 4 C-40.81854701 -5.65434213 -15.69834533 -10.67729461 0 0 Z M-23 0 C-23 4.95 -23 9.9 -23 15 C-22.67 15 -22.34 15 -22 15 C-22 10.05 -22 5.1 -22 0 C-22.33 0 -22.66 0 -23 0 Z " fill="#A8C8C2" transform="translate(126,35)"/>
<path d="M0 0 C0.74185547 0.12246094 1.48371094 0.24492187 2.24804688 0.37109375 C6.55924566 1.14657207 9.79056788 2.1790934 13.4375 4.75 C12.72586912 7.12210295 12.01297006 9.49369946 11.29296875 11.86328125 C10.72796474 13.7698473 10.18831294 15.684132 9.67578125 17.60546875 C9.31033203 18.94544922 9.31033203 18.94544922 8.9375 20.3125 C8.7209375 21.13878906 8.504375 21.96507813 8.28125 22.81640625 C8.0028125 23.45449219 7.724375 24.09257813 7.4375 24.75 C3.73054406 25.98565198 1.01662583 25.62429198 -2.875 25.3125 C-7.45574442 24.95242158 -11.96691056 24.6858755 -16.5625 24.75 C-12.8125 22.75 -12.8125 22.75 -10.5625 22.75 C-10.5625 20.11 -10.5625 17.47 -10.5625 14.75 C-10.2325 14.75 -9.9025 14.75 -9.5625 14.75 C-9.27466559 11.04013428 -9.10998043 7.45001295 -9.5625 3.75 C-11.8413824 1.00229728 -11.8413824 1.00229728 -14.5625 -0.25 C-9.35076527 -1.47240371 -5.16299416 -0.96496135 0 0 Z " fill="#9AC3B5" transform="translate(112.5625,30.25)"/>
<path d="M0 0 C1.9375 1.8125 1.9375 1.8125 3 4 C3.0625 6.4375 3.0625 6.4375 2 9 C-2.19204757 12.83850139 -6.61539835 15.78754633 -11.5625 18.5625 C-12.60651978 19.14837891 -12.60651978 19.14837891 -13.67163086 19.74609375 C-28.39921003 27.7539735 -43.42050718 29.85162311 -59.62890625 25.94921875 C-60.41136719 25.63597656 -61.19382812 25.32273438 -62 25 C-62.33 24.01 -62.66 23.02 -63 22 C-60 21 -60 21 -57 22 C-41.1684115 23.02846315 -27.75982998 20.51262064 -13.2578125 13.953125 C-11 13 -11 13 -9 13 C-9.515625 12.319375 -10.03125 11.63875 -10.5625 10.9375 C-12.44610971 7.08838451 -12.207644 5.07579849 -11 1 C-7.14720298 -2.63263719 -4.5965852 -2.2982926 0 0 Z " fill="#63A989" transform="translate(150,120)"/>
<path d="M0 0 C2.4375 1.625 2.4375 1.625 4 4 C4.44912849 7.14389944 4.504106 9.05480125 3 11.875 C-0.22174836 13.68723346 -3.39862897 13.5327028 -7 13 C-9 11.9375 -9 11.9375 -10 10 C-10.36528977 6.5906288 -10.6140629 4.11976176 -8.9375 1.0625 C-5.8347167 -0.63902633 -3.46230815 -0.42519574 0 0 Z " fill="#244466" transform="translate(161,96)"/>
<path d="M0 0 C-4.70151954 5.44386473 -12.20085128 6.23323754 -19 7 C-22.02161518 7.16721493 -25.03658945 7.22896017 -28.0625 7.25 C-28.81305664 7.25918457 -29.56361328 7.26836914 -30.33691406 7.27783203 C-35.75312482 7.24687518 -35.75312482 7.24687518 -38 5 C-37.33355469 5.02320313 -36.66710937 5.04640625 -35.98046875 5.0703125 C-25.45840484 5.27633893 -16.46396948 3.4131869 -6.62890625 -0.29296875 C-3.89989945 -1.02692155 -2.61106854 -0.96912 0 0 Z " fill="#6BB688" transform="translate(135,139)"/>
<path d="M0 0 C1.20140625 -0.01224609 2.4028125 -0.02449219 3.640625 -0.03710938 C5.36539063 -0.04000977 5.36539063 -0.04000977 7.125 -0.04296875 C8.17945312 -0.04707764 9.23390625 -0.05118652 10.3203125 -0.05541992 C13 0.1875 13 0.1875 16 2.1875 C-0.335 2.6825 -0.335 2.6825 -17 3.1875 C-14.45279955 -1.9069009 -4.88697115 0.00262177 0 0 Z " fill="#29405A" transform="translate(104,19.8125)"/>
<path d="M0 0 C0 0.33 0 0.66 0 1 C-1.65 1 -3.3 1 -5 1 C-5 7.27 -5 13.54 -5 20 C-6.98 20.99 -6.98 20.99 -9 22 C-9 19.69 -9 17.38 -9 15 C-8.67 15 -8.34 15 -8 15 C-7.71216559 11.29013428 -7.54748043 7.70001295 -8 4 C-10.2788824 1.25229728 -10.2788824 1.25229728 -13 0 C-8.37078475 -1.0161692 -4.65537393 -0.83796731 0 0 Z " fill="#98BFB3" transform="translate(111,30)"/>
<path d="M0 0 C0.66 0.33 1.32 0.66 2 1 C0.73342336 12.72675268 -2.81319882 24.48548994 -10 34 C-10.66 34 -11.32 34 -12 34 C-10.63794781 30.39380469 -8.98444362 27.12204801 -7.125 23.75 C-3.26650862 16.18433063 -1.6645832 8.26416602 0 0 Z " fill="#5AA37E" transform="translate(194,18)"/>
<path d="M0 0 C0 0.66 0 1.32 0 2 C-1.13480764 3.13480764 -2.27428495 4.26523431 -3.43359375 5.375 C-6.59499954 8.65466286 -9.25874039 12.3688054 -12 16 C-12.54011719 16.70511719 -13.08023438 17.41023438 -13.63671875 18.13671875 C-15.01073418 20.01467107 -16.02173189 21.89296099 -17 24 C-16.58878113 14.33635656 -10.32109892 7.98202277 -3.734375 1.43359375 C-2 0 -2 0 0 0 Z " fill="#5FA37E" transform="translate(148,22)"/>
<path d="M0 0 C3.04190863 -0.05421223 6.08283999 -0.09377548 9.125 -0.125 C9.9809375 -0.14175781 10.836875 -0.15851562 11.71875 -0.17578125 C16.56587293 -0.21306681 20.44707905 0.10419357 25 2 C25 2.33 25 2.66 25 3 C16.75 2.67 8.5 2.34 0 2 C0 1.34 0 0.68 0 0 Z " fill="#2D435B" transform="translate(93,8)"/>
<path d="M0 0 C0.33 0 0.66 0 1 0 C0.98839844 0.89203125 0.97679688 1.7840625 0.96484375 2.703125 C0.95582031 3.87359375 0.94679688 5.0440625 0.9375 6.25 C0.92589844 7.41015625 0.91429688 8.5703125 0.90234375 9.765625 C0.98316741 12.44250472 1.29781514 14.45665325 2 17 C2 19.33333333 2 21.66666667 2 24 C2.185625 24.70125 2.37125 25.4025 2.5625 26.125 C3.14535945 28.62296909 2.61480045 30.54079819 2 33 C1.67 33 1.34 33 1 33 C-0.68265119 21.76378382 -1.12647988 11.31046688 0 0 Z " fill="#384F76" transform="translate(19,79)"/>
<path d="M0 0 C3.80718548 0.72753266 7.55485569 1.61276572 11.3125 2.5625 C12.38113281 2.83191406 13.44976562 3.10132813 14.55078125 3.37890625 C15.76314453 3.68634766 15.76314453 3.68634766 17 4 C14.70226955 5.41116322 13.43446427 6.03929455 10.7109375 5.79296875 C9.94007812 5.59316406 9.16921875 5.39335937 8.375 5.1875 C7.21097656 4.89939453 7.21097656 4.89939453 6.0234375 4.60546875 C4 4 4 4 2 3 C2 2.34 2 1.68 2 1 C1.34 0.67 0.68 0.34 0 0 Z " fill="#384D66" transform="translate(73,150)"/>
<path d="M0 0 C0.33 0 0.66 0 1 0 C1.33 8.58 1.66 17.16 2 26 C1.34 26.33 0.68 26.66 0 27 C-1.29227031 21.31401066 -0.90242274 15.89196518 -0.5625 10.125 C-0.51029297 9.15046875 -0.45808594 8.1759375 -0.40429688 7.171875 C-0.27536992 4.78086598 -0.14044056 2.39035574 0 0 Z " fill="#677B8F" transform="translate(35,82)"/>
<path d="M0 0 C3.83219177 1.56126332 6.17361222 4.02866925 9 7 C9.598125 7.556875 10.19625 8.11375 10.8125 8.6875 C12 10 12 10 12 12 C8.60140297 10.53033642 6.35036291 8.61962486 3.75 6 C3.04359375 5.29875 2.3371875 4.5975 1.609375 3.875 C0 2 0 2 0 0 Z " fill="#5BA578" transform="translate(84,101)"/>
<path d="M0 0 C0.33 0.66 0.66 1.32 1 2 C2.98709515 2.57758155 2.98709515 2.57758155 5.3125 2.9375 C8.89820042 3.65121426 11.29226492 4.40999254 14 7 C12.9790625 6.7834375 12.9790625 6.7834375 11.9375 6.5625 C6.00928494 5.40429491 6.00928494 5.40429491 0 5 C-0.66 5.66 -1.32 6.32 -2 7 C-1.125 2.25 -1.125 2.25 0 0 Z " fill="#BED0D1" transform="translate(46,68)"/>
<path d="M0 0 C0 0.33 0 0.66 0 1 C-1.98 1 -3.96 1 -6 1 C-6.33 3.97 -6.66 6.94 -7 10 C-7.99 10 -8.98 10 -10 10 C-10.35915493 3.65492958 -10.35915493 3.65492958 -8.9375 1.0625 C-5.98831309 -0.55479605 -3.29132441 -0.18630138 0 0 Z " fill="#315066" transform="translate(161,96)"/>
<path d="M0 0 C1.32 0.33 2.64 0.66 4 1 C3.00233891 3.49415272 2.31383315 4.78740335 0.0625 6.3125 C-2 7 -2 7 -5 6 C-4.01 5.67 -3.02 5.34 -2 5 C-2 4.01 -2 3.02 -2 2 C-1.34 2 -0.68 2 0 2 C0 1.34 0 0.68 0 0 Z " fill="#6EAE8E" transform="translate(141,131)"/>
<path d="M0 0 C0 0.66 0 1.32 0 2 C-3.67410785 3.17571451 -7.16929183 3.07366746 -11 3 C-11 2.34 -11 1.68 -11 1 C-7.32589215 -0.17571451 -3.83070817 -0.07366746 0 0 Z " fill="#2D4560" transform="translate(125,170)"/>
<path d="M0 0 C1 3 1 3 0.109375 4.7890625 C-0.33921875 5.39492188 -0.7878125 6.00078125 -1.25 6.625 C-1.68828125 7.23601563 -2.1265625 7.84703125 -2.578125 8.4765625 C-4 10 -4 10 -7 11 C-5.5140084 6.40693504 -3.14985318 3.56430755 0 0 Z " fill="#2D425C" transform="translate(38,38)"/>
<path d="M0 0 C0 0.33 0 0.66 0 1 C-1.65 1 -3.3 1 -5 1 C-5 1.99 -5 2.98 -5 4 C-7.9719385 2.87548273 -10.33440687 1.77706209 -13 0 C-8.37078475 -1.0161692 -4.65537393 -0.83796731 0 0 Z " fill="#93B2AC" transform="translate(111,30)"/>
<path d="M0 0 C0.66 0.33 1.32 0.66 2 1 C2.6328125 3.06640625 2.6328125 3.06640625 3.125 5.5625 C3.29257813 6.38878906 3.46015625 7.21507813 3.6328125 8.06640625 C3.75398437 8.70449219 3.87515625 9.34257813 4 10 C3.67 9.34 3.34 8.68 3 8 C2.34 8 1.68 8 1 8 C1 6.68 1 5.36 1 4 C0.01 4.33 -0.98 4.66 -2 5 C-1.125 1.125 -1.125 1.125 0 0 Z " fill="#2C485D" transform="translate(183,62)"/>
<path d="M0 0 C2.475 0.495 2.475 0.495 5 1 C4.34 2.98 3.68 4.96 3 7 C2.01 7 1.02 7 0 7 C0.185625 6.21625 0.37125 5.4325 0.5625 4.625 C1.25962266 2.02910225 1.25962266 2.02910225 0 0 Z " fill="#92BCB0" transform="translate(121,34)"/>
<path d="M0 0 C0.33 1.32 0.66 2.64 1 4 C-1.97 6.475 -1.97 6.475 -5 9 C-5 4.61031544 -2.87194899 3.23094261 0 0 Z " fill="#344C63" transform="translate(162,126)"/>
<path d="M0 0 C0.66 0.33 1.32 0.66 2 1 C-1.32307692 5.8 -1.32307692 5.8 -4.75 6.8125 C-5.4925 6.874375 -6.235 6.93625 -7 7 C-4.66666667 4.66666667 -2.33333333 2.33333333 0 0 Z " fill="#354B64" transform="translate(54,23)"/>
<path d="M0 0 C1.00000429 4.00001715 0.80688405 6.05523353 0 10 C-0.99 10.33 -1.98 10.66 -3 11 C-2.01 7.37 -1.02 3.74 0 0 Z " fill="#38546C" transform="translate(169,109)"/>
<path d="M0 0 C-0.8125 1.9375 -0.8125 1.9375 -2 4 C-2.99 4.33 -3.98 4.66 -5 5 C-5.33 5.99 -5.66 6.98 -6 8 C-6.33 7.01 -6.66 6.02 -7 5 C-2.25 0 -2.25 0 0 0 Z " fill="#61A281" transform="translate(152,56)"/>
<path d="M0 0 C5.53846154 0.61538462 5.53846154 0.61538462 7.875 2.5625 C8.431875 3.2740625 8.431875 3.2740625 9 4 C5.30581799 4 3.22163822 2.71820705 0 1 C0 0.67 0 0.34 0 0 Z " fill="#314665" transform="translate(58,161)"/>
<path d="M0 0 C0.66 0 1.32 0 2 0 C1.01 2.97 0.02 5.94 -1 9 C-1.66 8.01 -2.32 7.02 -3 6 C-2.01 4.02 -1.02 2.04 0 0 Z " fill="#35526B" transform="translate(41,60)"/>
<path d="M0 0 C1.258125 0.12375 2.51625 0.2475 3.8125 0.375 C4.87404297 0.47941406 4.87404297 0.47941406 5.95703125 0.5859375 C8 1 8 1 11 3 C7.98968256 3.93423645 7.13349732 4.04449911 4 3 C4 2.34 4 1.68 4 1 C2.68 0.67 1.36 0.34 0 0 Z " fill="#3E586B" transform="translate(114,9)"/>
<path d="M0 0 C0.66 0 1.32 0 2 0 C1.25 5.75 1.25 5.75 -1 8 C-2.2077558 4.37673261 -1.54311128 3.35853631 0 0 Z " fill="#2B435D" transform="translate(184,115)"/>
<path d="M0 0 C0.66 0.66 1.32 1.32 2 2 C1.67 2.99 1.34 3.98 1 5 C0.67 3.35 0.34 1.7 0 0 Z " fill="#5C5CA3" transform="translate(168,78)"/>
<path d="M0 0 C0.66 0.66 1.32 1.32 2 2 C1.34 2 0.68 2 0 2 C0 1.34 0 0.68 0 0 Z " fill="#1C1C1C" transform="translate(76,171)"/>
<path d="M0 0 C3 1 3 1 3 1 Z " fill="#002A2A" transform="translate(73,170)"/>
<path d="M0 0 C3 1 3 1 3 1 Z " fill="#55AAAA" transform="translate(120,151)"/>
<path d="M0 0 C0.66 0 1.32 0 2 0 C1.67 0.66 1.34 1.32 1 2 C0.67 1.34 0.34 0.68 0 0 Z " fill="#8EA3A3" transform="translate(42,114)"/>
<path d="M0 0 C2 1 2 1 2 1 Z " fill="#40BFBF" transform="translate(92,153)"/>
<path d="M0 0 C2 1 2 1 2 1 Z " fill="#00FFFF" transform="translate(113,148)"/>
<path d="M0 0 C2 1 2 1 2 1 Z " fill="#808080" transform="translate(93,141)"/>
<path d="" fill="#2A2A2A" transform="translate(0,0)"/>
<path d="" fill="#202040" transform="translate(0,0)"/>
<path d="" fill="#000000" transform="translate(0,0)"/>
<path d="" fill="#336666" transform="translate(0,0)"/>
<path d="" fill="#000000" transform="translate(0,0)"/>
<path d="" fill="#000000" transform="translate(0,0)"/>
<path d="" fill="#00FFFF" transform="translate(0,0)"/>
<path d="" fill="#00FFFF" transform="translate(0,0)"/>
<path d="" fill="#55AAAA" transform="translate(0,0)"/>
<path d="" fill="#00FFFF" transform="translate(0,0)"/>
<path d="" fill="#808080" transform="translate(0,0)"/>
<path d="" fill="#00FFFF" transform="translate(0,0)"/>
<path d="" fill="#00FFFF" transform="translate(0,0)"/>
<path d="" fill="#000000" transform="translate(0,0)"/>
<path d="" fill="#808080" transform="translate(0,0)"/>
<path d="" fill="#00FFFF" transform="translate(0,0)"/>
<path d="" fill="#55AAAA" transform="translate(0,0)"/>
<path d="" fill="#0000FF" transform="translate(0,0)"/>
<path d="" fill="#808080" transform="translate(0,0)"/>
<path d="" fill="#00FFFF" transform="translate(0,0)"/>
<path d="" fill="#FFFFFF" transform="translate(0,0)"/>
<path d="" fill="#FFFFFF" transform="translate(0,0)"/>
<path d="" fill="#FFFFFF" transform="translate(0,0)"/>
<path d="" fill="#000000" transform="translate(0,0)"/>
<path d="" fill="#808080" transform="translate(0,0)"/>
<path d="" fill="#FFFFFF" transform="translate(0,0)"/>
<path d="" fill="#00FFFF" transform="translate(0,0)"/>
<path d="" fill="#00FFFF" transform="translate(0,0)"/>
<path d="" fill="#55AAAA" transform="translate(0,0)"/>
<path d="" fill="#FFFFFF" transform="translate(0,0)"/>
<path d="" fill="#00FFFF" transform="translate(0,0)"/>
<path d="" fill="#00FFFF" transform="translate(0,0)"/>
<path d="" fill="#00FFFF" transform="translate(0,0)"/>
<path d="" fill="#FFFFFF" transform="translate(0,0)"/>
<path d="" fill="#808080" transform="translate(0,0)"/>
<path d="" fill="#AAAAAA" transform="translate(0,0)"/>
<path d="" fill="#000000" transform="translate(0,0)"/>
<path d="" fill="#FFFFFF" transform="translate(0,0)"/>
<path d="" fill="#FFFFFF" transform="translate(0,0)"/>
<path d="" fill="#FFFFFF" transform="translate(0,0)"/>
<path d="" fill="#000000" transform="translate(0,0)"/>
<path d="" fill="#000000" transform="translate(0,0)"/>
<path d="" fill="#FFFFFF" transform="translate(0,0)"/>
<path d="" fill="#000000" transform="translate(0,0)"/>
<path d="" fill="#808080" transform="translate(0,0)"/>
<path d="" fill="#000000" transform="translate(0,0)"/>
<path d="" fill="#000000" transform="translate(0,0)"/>
<path d="" fill="#00FFFF" transform="translate(0,0)"/>
<path d="" fill="#000000" transform="translate(0,0)"/>
<path d="" fill="#00FFFF" transform="translate(0,0)"/>
<path d="" fill="#80FFFF" transform="translate(0,0)"/>
<path d="" fill="#808080" transform="translate(0,0)"/>
<path d="" fill="#808080" transform="translate(0,0)"/>
<path d="" fill="#FFFFFF" transform="translate(0,0)"/>
<path d="" fill="#80FF80" transform="translate(0,0)"/>
<path d="" fill="#00FFFF" transform="translate(0,0)"/>
<path d="" fill="#AAAAAA" transform="translate(0,0)"/>
<path d="" fill="#00FFFF" transform="translate(0,0)"/>
<path d="" fill="#55AAAA" transform="translate(0,0)"/>
<path d="" fill="#00FFFF" transform="translate(0,0)"/>
<path d="" fill="#FFFFFF" transform="translate(0,0)"/>
<path d="" fill="#FFFFFF" transform="translate(0,0)"/>
<path d="" fill="#00FFFF" transform="translate(0,0)"/>
<path d="" fill="#FFFFFF" transform="translate(0,0)"/>
<path d="" fill="#AAAAAA" transform="translate(0,0)"/>
<path d="" fill="#55AAAA" transform="translate(0,0)"/>
<path d="" fill="#000000" transform="translate(0,0)"/>
<path d="" fill="#000000" transform="translate(0,0)"/>
<path d="" fill="#00FFFF" transform="translate(0,0)"/>
<path d="" fill="#AAAAAA" transform="translate(0,0)"/>
<path d="" fill="#FFFFFF" transform="translate(0,0)"/>
<path d="" fill="#FFFFFF" transform="translate(0,0)"/>
<path d="" fill="#00FFFF" transform="translate(0,0)"/>
<path d="" fill="#808080" transform="translate(0,0)"/>
<path d="" fill="#00FFFF" transform="translate(0,0)"/>
<path d="" fill="#FFFFFF" transform="translate(0,0)"/>
<path d="" fill="#808080" transform="translate(0,0)"/>
<path d="" fill="#669999" transform="translate(0,0)"/>
<path d="" fill="#808080" transform="translate(0,0)"/>
<path d="" fill="#55AAAA" transform="translate(0,0)"/>
<path d="" fill="#00FFFF" transform="translate(0,0)"/>
<path d="" fill="#000000" transform="translate(0,0)"/>
<path d="" fill="#000000" transform="translate(0,0)"/>
</svg>
